<svg width="80" height="80" viewBox="0 0 80 80" fill="none" xmlns="http://www.w3.org/2000/svg">
<path d="M40 80C62.0914 80 80 62.0914 80 40C80 17.9086 62.0914 0 40 0C17.9086 0 0 17.9086 0 40C0 62.0914 17.9086 80 40 80Z" fill="#211E1E"/>
<path d="M56.9317 22.6652C56.9317 22.486 56.8869 22.3965 56.8869 22.3069C57.8275 19.8881 57.514 19.8433 55.0504 19.9777C52.7211 20.112 50.3919 20.6495 48.1523 21.3662C43.2251 22.934 38.6114 25.2184 34.2217 27.9956C32.206 29.2946 30.2799 30.6831 28.8466 32.6988C28.0403 33.8634 28.1299 35.1624 29.3841 36.0135C31.4893 37.4469 33.729 38.7011 35.7894 40.224C37.6707 41.6126 39.5072 43.0908 41.1646 44.7481C43.3594 46.9429 43.8074 49.8097 43.4938 52.8108C43.449 53.2587 43.2251 53.6619 43.0011 54.065C41.6573 56.5286 39.8208 58.5443 37.3124 59.8881C36.0582 60.56 34.8488 61.4558 33.505 61.9933C32.3852 62.4412 31.131 62.6652 29.9664 62.7548C28.8913 62.8444 28.1299 62.1277 27.7715 61.0975C27.1444 59.261 27.3684 57.4692 28.6674 56.0359C30.7726 53.6619 33.4154 52.1389 36.5061 51.3326C36.6853 51.2878 36.9093 51.2878 37.0884 51.2878C37.1332 51.3774 37.178 51.5118 37.2676 51.6014C36.4165 52.1389 35.6103 52.6316 35.0728 52.99C34.8936 53.4827 34.8488 53.8858 34.6696 54.0202C33.5498 54.9161 32.2956 55.7671 31.2206 56.7078C30.4143 57.3797 29.6976 58.1411 29.0257 58.9922C28.3538 59.8881 28.6226 60.3808 29.7424 60.5152C31.8925 60.7391 33.8186 60.0224 35.6999 59.037C38.2978 57.6484 40.4031 55.7223 42.0156 53.2587C43.1355 51.6014 43.2251 49.3617 42.1052 47.6148C40.3135 44.9273 37.6707 43.2251 35.028 41.5678C32.7883 40.1344 30.3247 39.0146 28.5778 36.8198C27.2788 35.2072 27.2788 33.5499 27.9507 31.803C28.757 29.7873 30.3247 28.3987 32.0268 27.2341C36.7749 23.9194 41.8813 21.2319 47.3908 19.4401C49.5408 18.7235 51.7357 18.0516 53.9305 17.5588C55.4983 17.2005 57.1108 17.2453 58.1411 18.9474C59.2609 20.9183 59.3953 21.635 56.9317 22.6652Z" fill="#FDB1D0"/>
</svg>
