<?xml version="1.0" encoding="utf-8"?><!DOCTYPE svg PUBLIC "-//W3C//DTD SVG 1.1//EN" "http://www.w3.org/Graphics/SVG/1.1/DTD/svg11.dtd"><svg xmlns="http://www.w3.org/2000/svg" xmlns:xlink="http://www.w3.org/1999/xlink"><symbol viewBox="0 0 18 18" id="account" xmlns="http://www.w3.org/2000/svg"><path d="M9 .667A8.336 8.336 0 00.667 9c0 4.6 3.733 8.333 8.333 8.333S17.333 13.6 17.333 9 13.6.667 9 .667zm0 2.5c1.383 0 2.5 1.116 2.5 2.5 0 1.383-1.117 2.5-2.5 2.5a2.497 2.497 0 01-2.5-2.5c0-1.384 1.117-2.5 2.5-2.5zM9 15a6 6 0 01-5-2.683c.025-1.659 3.333-2.567 5-2.567 1.658 0 4.975.908 5 2.567A6 6 0 019 15z"/></symbol><symbol viewBox="0 0 451.847 451.847" id="arrow-down" xmlns="http://www.w3.org/2000/svg"><path d="M225.923 354.706c-8.098 0-16.195-3.092-22.369-9.263L9.27 151.157c-12.359-12.359-12.359-32.397 0-44.751 12.354-12.354 32.388-12.354 44.748 0l171.905 171.915 171.906-171.909c12.359-12.354 32.391-12.354 44.744 0 12.365 12.354 12.365 32.392 0 44.751L248.292 345.449c-6.177 6.172-14.274 9.257-22.369 9.257z"/></symbol><symbol viewBox="0 0 24 24" id="arrow-left" xmlns="http://www.w3.org/2000/svg"><path d="M12 24l2.115-2.115-8.37-8.385H24v-3H5.745l8.37-8.385L12 0 0 12l12 12z"/></symbol><symbol viewBox="0 0 24 24" id="arrow-right" xmlns="http://www.w3.org/2000/svg"><path d="M12 0L9.885 2.115l8.37 8.385H0v3h18.255l-8.37 8.385L12 24l12-12L12 0z"/></symbol><symbol viewBox="0 0 24 24" id="cancel" xmlns="http://www.w3.org/2000/svg"><path d="M6.758 17.243L12.001 12m5.243-5.243L12 12m0 0L6.758 6.757M12.001 12l5.243 5.243"/></symbol><symbol viewBox="0 0 18 18" id="cart" xmlns="http://www.w3.org/2000/svg"><path d="M5.833 14c-.916 0-1.658.75-1.658 1.667 0 .916.742 1.666 1.658 1.666.917 0 1.667-.75 1.667-1.666C7.5 14.75 6.75 14 5.833 14zM.833.667v1.666H2.5l3 6.325L4.375 10.7a1.612 1.612 0 00-.208.8c0 .917.75 1.667 1.666 1.667h10V11.5h-9.65a.206.206 0 01-.208-.208l.025-.1.75-1.359h6.208c.625 0 1.175-.341 1.459-.858L17.4 3.567a.836.836 0 00-.733-1.233H4.342L3.558.666H.833zM14.167 14c-.917 0-1.659.75-1.659 1.667 0 .916.742 1.666 1.659 1.666.916 0 1.666-.75 1.666-1.666 0-.917-.75-1.667-1.666-1.667z"/></symbol><symbol viewBox="0 0 6 10" id="link-arrow-right" xmlns="http://www.w3.org/2000/svg"><path d="M0 1.06L3.901 5 0 8.94 1.05 10 6 5 1.05 0 0 1.06z"/></symbol><symbol viewBox="0 0 80 80" id="logo" xmlns="http://www.w3.org/2000/svg"><path fill-rule="evenodd" clip-rule="evenodd" d="M40 79c21.54 0 39-17.46 39-39S61.54 1 40 1 1 18.46 1 40s17.46 39 39 39zm40-39c0 22.091-17.909 40-40 40S0 62.091 0 40 17.909 0 40 0s40 17.909 40 40z"/><path fill-rule="evenodd" clip-rule="evenodd" d="M55.932 24.167v-1.502a.566.566 0 00-.003-.017l-.008-.034-.012-.065a1.393 1.393 0 01-.022-.242v-.188l.068-.175c.175-.449.288-.772.353-1.007-.28-.007-.663.01-1.202.04-2.217.127-4.46.64-6.649 1.342h-.002c-4.83 1.537-9.364 3.78-13.695 6.52-1.996 1.286-3.78 2.587-5.095 4.434-.295.428-.368.795-.331 1.066.034.253.181.555.612.847.845.576 1.71 1.12 2.593 1.676l.599.378c1.083.685 2.184 1.395 3.245 2.18 1.902 1.403 3.782 2.914 5.489 4.621 2.494 2.494 2.946 5.72 2.617 8.872-.067.657-.38 1.218-.585 1.586l-.027.048c-1.42 2.603-3.385 4.772-6.092 6.223-.43.23-.845.482-1.288.752-.175.107-.355.216-.541.327-.638.382-1.331.774-2.08 1.073-1.242.497-2.602.735-3.83.83-1.685.139-2.77-1.035-3.219-2.326l-.002-.005c-.722-2.116-.484-4.304 1.098-6.052 2.249-2.535 5.07-4.153 8.33-5.004l.01-.003a3.36 3.36 0 01.797-.074h.646l.277.553.032.066c.008.018.016.035.02.047l.002.002.822.823-1.057.668-.85.533c-.388.242-.74.462-1.036.654l-.016.054-.074.25c-.032.103-.08.243-.148.381a1.407 1.407 0 01-.391.488c-.453.362-.929.718-1.392 1.065l-.365.274c-.586.44-1.143.87-1.65 1.314l-.01.008-.01.008a14.067 14.067 0 00-1.98 2.048c1.842.182 3.543-.424 5.352-1.37a16.023 16.023 0 005.947-5.443l.004-.006.004-.006c.904-1.338.971-3.142.081-4.537-1.656-2.48-4.111-4.08-6.771-5.747l-.008-.005c-.499-.32-1.01-.623-1.539-.937l-.14-.084a44.726 44.726 0 01-1.742-1.074c-1.158-.763-2.306-1.659-3.27-2.87-.761-.945-1.17-1.944-1.268-2.99-.098-1.032.115-2.042.487-3.011l.005-.012c.916-2.29 2.68-3.818 4.436-5.02 4.814-3.36 10.006-6.095 15.62-7.922 2.162-.72 4.391-1.403 6.632-1.906.847-.194 1.82-.308 2.766-.075.992.244 1.872.849 2.52 1.92l.008.012.007.012c.28.494.536.972.7 1.419.163.45.274.974.141 1.523-.137.567-.493.993-.926 1.325-.419.322-.966.6-1.608.868l-1.386.58zM47.39 19.44c-5.51 1.792-10.616 4.48-15.364 7.794-1.702 1.165-3.27 2.553-4.076 4.569a7.302 7.302 0 00-.309.997c-.28 1.226-.153 2.41.608 3.57.098.15.207.3.328.45 1.346 1.691 3.118 2.744 4.885 3.794.526.313 1.051.625 1.565.954 2.358 1.479 4.716 2.993 6.47 5.211.211.268.414.546.607.836.908 1.416 1.021 3.156.435 4.647a5.134 5.134 0 01-.524.997 17.023 17.023 0 01-6.316 5.778c-1.881.985-3.808 1.702-5.958 1.478-1.12-.134-1.388-.627-.716-1.523a15.167 15.167 0 012.195-2.284c.651-.57 1.369-1.108 2.082-1.642.464-.347.925-.693 1.367-1.046.118-.089.178-.295.257-.568.04-.139.085-.295.146-.462.157-.105.337-.221.535-.347a124.86 124.86 0 01.832-.522l.228-.143.006-.004.415-.26.179-.113a.694.694 0 01-.13-.204 2.986 2.986 0 01-.05-.11h-.018c-.176 0-.39.002-.564.046-.454.118-.898.252-1.333.402-2.523.87-4.71 2.276-6.506 4.3-1.299 1.434-1.523 3.226-.895 5.062.358 1.03 1.12 1.747 2.194 1.658 1.165-.09 2.42-.314 3.539-.762.855-.342 1.656-.83 2.45-1.312.452-.275.902-.549 1.357-.793 2.509-1.344 4.345-3.36 5.69-5.823.223-.403.447-.806.492-1.254.011-.11.022-.219.031-.328.162-1.88.008-3.7-.707-5.325l-.006-.014a7.795 7.795 0 00-1.647-2.396c-1.658-1.657-3.494-3.135-5.376-4.524-1.218-.9-2.499-1.707-3.777-2.512a87.528 87.528 0 01-2.628-1.699 3.009 3.009 0 01-.355-.28c-.786-.728-.89-1.688-.433-2.61.07-.143.154-.284.25-.424 1.434-2.016 3.36-3.404 5.376-4.703 4.39-2.778 9.003-5.062 13.93-6.63 2.24-.716 4.57-1.254 6.898-1.388 2.127-.116 2.652-.099 2.15 1.465-.08.247-.185.533-.313.864 0 .037.008.074.017.117.012.062.028.136.028.241.146-.061.283-.121.412-.18a8.236 8.236 0 00.537-.273 4.68 4.68 0 00.142-.084c1.291-.793 1.035-1.566.118-3.18-1.03-1.703-2.643-1.747-4.21-1.39-2.195.494-4.39 1.165-6.54 1.882zm8.986 1.144v0zm-.445 2.081z"/></symbol><symbol viewBox="0 0 80 80" id="logo-regular" xmlns="http://www.w3.org/2000/svg"><path fill-rule="evenodd" clip-rule="evenodd" d="M39.5 78C61.04 78 78 61.54 78 40S61.04 2 39.5 2 2 18.46 2 40s15.96 38 37.5 38zM80 40c0 22.091-17.909 40-40 40S0 62.091 0 40 17.909 0 40 0s40 17.909 40 40z"/><path fill-rule="evenodd" clip-rule="evenodd" d="M55.932 24.167v-1.502l-.003-.017-.008-.034-.012-.065a1.393 1.393 0 01-.022-.242v-.188l.068-.175c.175-.449.288-.772.353-1.007-.28-.007-.663.01-1.202.04-2.217.127-4.46.64-6.649 1.342h-.002c-4.83 1.537-9.364 3.78-13.695 6.52-1.996 1.286-3.78 2.587-5.095 4.434-.295.428-.368.795-.331 1.066.034.253.181.555.612.847.845.576 1.71 1.12 2.593 1.676l.599.378c1.083.685 2.184 1.395 3.245 2.18 1.902 1.403 3.782 2.914 5.489 4.621 2.494 2.494 2.946 5.72 2.617 8.872-.067.657-.38 1.218-.585 1.586l-.027.048c-1.42 2.603-3.385 4.772-6.092 6.223-.43.23-.845.482-1.288.752-.175.107-.355.216-.541.327-.638.382-1.331.774-2.08 1.073-1.242.497-2.602.735-3.83.83-1.685.139-2.77-1.035-3.219-2.326l-.002-.005c-.722-2.116-.484-4.304 1.098-6.052 2.249-2.535 5.07-4.153 8.33-5.004l.01-.003c.304-.075.637-.075.797-.074h.646l.277.553.032.066c.008.018.016.035.02.047l.002.002.822.823-1.057.668-.85.533c-.388.242-.74.462-1.036.654l-.016.054-.074.25c-.032.103-.08.243-.148.381a1.407 1.407 0 01-.391.488c-.453.362-.929.718-1.392 1.065l-.366.274c-.585.44-1.142.87-1.65 1.314l-.009.008-.01.008a14.067 14.067 0 00-1.98 2.048c1.842.182 3.543-.424 5.352-1.37a16.023 16.023 0 005.947-5.443l.004-.006.004-.006c.904-1.338.971-3.142.081-4.537-1.656-2.48-4.111-4.08-6.771-5.747l-.008-.005a54.545 54.545 0 00-1.539-.937 52.083 52.083 0 01-1.882-1.158c-1.158-.763-2.306-1.659-3.27-2.87-.761-.945-1.17-1.944-1.268-2.99-.098-1.032.115-2.042.487-3.011l.005-.012c.916-2.29 2.68-3.818 4.436-5.02 4.814-3.36 10.006-6.095 15.62-7.922 2.162-.72 4.391-1.403 6.632-1.906.847-.194 1.82-.308 2.766-.075.992.244 1.872.849 2.52 1.92l.008.012.007.012c.28.494.536.972.7 1.419.163.45.274.974.141 1.523-.137.567-.493.993-.926 1.325-.419.322-.966.6-1.608.868l-1.386.58zm.444-3.583v0z"/></symbol><symbol viewBox="0 0 15 15" id="search" xmlns="http://www.w3.org/2000/svg"><path d="M10.417 9.167h-.659l-.233-.225a5.393 5.393 0 001.308-3.525 5.416 5.416 0 10-5.416 5.416 5.393 5.393 0 003.525-1.308l.225.233v.659l4.166 4.158 1.242-1.242-4.158-4.166zm-5 0a3.745 3.745 0 01-3.75-3.75 3.745 3.745 0 013.75-3.75 3.745 3.745 0 013.75 3.75 3.745 3.745 0 01-3.75 3.75z"/></symbol><symbol viewBox="0 0 7 12" id="socials--facebook" xmlns="http://www.w3.org/2000/svg"><path d="M6.244.002L4.687 0C2.94 0 1.81 1.16 1.81 2.953v1.362H.245A.245.245 0 000 4.56v1.973c0 .135.11.244.245.244h1.564v4.978c0 .135.11.245.245.245h2.041c.136 0 .245-.11.245-.245V6.777h1.83c.135 0 .244-.11.244-.244V4.56a.245.245 0 00-.244-.245H4.34V3.16c0-.555.132-.837.855-.837h1.048c.135 0 .245-.11.245-.245V.247a.245.245 0 00-.245-.245z"/></symbol><symbol viewBox="0 0 14 11" id="socials--gmail" xmlns="http://www.w3.org/2000/svg"><path d="M12.6 0H1.4C.63 0 .007.619.007 1.375L0 9.625C0 10.381.63 11 1.4 11h11.2c.77 0 1.4-.619 1.4-1.375v-8.25C14 .619 13.37 0 12.6 0zm0 2.75L7 6.188 1.4 2.75V1.375L7 4.813l5.6-3.438V2.75z"/></symbol><symbol viewBox="0 0 12 13" id="socials--instagram" xmlns="http://www.w3.org/2000/svg"><path d="M11.97 3.529c-.029-.638-.132-1.076-.28-1.456a2.929 2.929 0 00-.693-1.065A2.953 2.953 0 009.934.317C9.552.169 9.116.066 8.478.037 7.836.008 7.632 0 6.002 0S4.17.007 3.53.035c-.638.028-1.076.132-1.456.28a2.928 2.928 0 00-1.065.693c-.304.3-.541.664-.691 1.062-.148.383-.251.819-.28 1.456C.008 4.17 0 4.373 0 6.002c0 1.63.007 1.834.035 2.474.028.638.132 1.076.28 1.456.152.403.389.764.693 1.064.3.305.664.542 1.063.692.382.148.818.251 1.456.28.64.027.844.034 2.473.034 1.63 0 1.834-.007 2.474-.035.638-.028 1.076-.131 1.456-.279a3.07 3.07 0 001.756-1.756c.148-.382.25-.818.279-1.456.028-.64.035-.844.035-2.474 0-1.63-.002-1.833-.03-2.473zm-1.081 4.9c-.026.586-.124.903-.207 1.114a1.99 1.99 0 01-1.14 1.14c-.21.081-.529.18-1.113.206-.633.028-.823.035-2.424.035-1.602 0-1.794-.007-2.425-.035-.586-.026-.902-.125-1.113-.207a1.846 1.846 0 01-.69-.447c-.199-.195-.351-.43-.447-.69-.083-.21-.181-.53-.207-1.114-.028-.633-.035-.823-.035-2.424s.007-1.794.035-2.424c.026-.587.124-.903.207-1.114.096-.26.248-.497.45-.69.194-.199.429-.351.69-.447.21-.082.529-.18 1.113-.207.633-.028.823-.035 2.424-.035 1.604 0 1.794.007 2.425.035.586.026.902.125 1.113.207.26.096.497.248.69.448.199.194.351.429.447.689.082.211.181.53.207 1.114.028.633.035.823.035 2.424s-.007 1.789-.035 2.422z"/><path d="M6.003 2.92a3.084 3.084 0 10.001 6.167 3.084 3.084 0 00-.001-6.168zm0 5.082a2 2 0 110-4 2 2 0 010 4zM9.928 2.797a.72.72 0 11-1.44 0 .72.72 0 011.44 0z"/></symbol><symbol viewBox="0 0 13 12" id="socials--linkedin" xmlns="http://www.w3.org/2000/svg"><path d="M1.474 0c.8 0 1.474.674 1.474 1.474 0 .842-.716 1.494-1.474 1.473C.695 2.968.001 2.316.001 1.474-.02.653.653 0 1.474 0zM2.295 12H.611a.422.422 0 01-.42-.421V4.211c0-.232.168-.421.4-.421h1.704c.232 0 .421.189.421.42v7.39c0 .21-.189.4-.42.4zM12.19 6.358c0-1.558-1.158-2.78-2.716-2.78h-.442c-.842 0-1.663.4-2.105 1.053l-.21.211V4c0-.084-.127-.21-.211-.21H4.4c-.085 0-.211.084-.211.189v7.852c0 .085.126.169.21.169h2.316c.085 0 .21-.084.21-.168V7.284c0-.779.59-1.431 1.37-1.453.4 0 .757.148 1.03.422.253.252.359.61.359 1.01v4.526c0 .085.126.21.21.21h2.106c.084 0 .21-.125.21-.21V6.358h-.021z"/></symbol><symbol viewBox="0 0 12 14" id="socials--pinterest" xmlns="http://www.w3.org/2000/svg"><path d="M6.2 0C2.154 0 0 2.459 0 5.14c0 1.243.733 2.794 1.906 3.286.178.076.275.044.315-.113.035-.12.19-.692.264-.963.023-.086.011-.162-.063-.243-.39-.427-.698-1.205-.698-1.935 0-1.87 1.568-3.685 4.237-3.685 2.308 0 3.922 1.42 3.922 3.453 0 2.297-1.282 3.887-2.948 3.887-.923 0-1.61-.687-1.391-1.535.263-1.011.779-2.098.779-2.827 0-.653-.39-1.194-1.186-1.194-.939 0-1.7.881-1.7 2.064 0 .752.28 1.26.28 1.26s-.928 3.555-1.1 4.22c-.293 1.124.039 2.945.068 3.102.017.086.12.113.177.043.091-.114 1.214-1.632 1.528-2.73l.585-2.021c.31.53 1.202.973 2.153.973 2.828 0 4.872-2.357 4.872-5.28C11.99 2.096 9.459 0 6.2 0z"/></symbol><symbol viewBox="0 0 16 13" id="socials--twitter" xmlns="http://www.w3.org/2000/svg"><path d="M16 1.539a6.839 6.839 0 01-1.89.518A3.262 3.262 0 0015.553.244a6.555 6.555 0 01-2.08.794 3.28 3.28 0 00-5.674 2.243c0 .26.022.51.076.748A9.284 9.284 0 011.114.598a3.285 3.285 0 001.008 4.384A3.24 3.24 0 01.64 4.578v.036a3.295 3.295 0 002.628 3.223 3.274 3.274 0 01-.86.108 2.9 2.9 0 01-.621-.056 3.311 3.311 0 003.065 2.285 6.59 6.59 0 01-4.067 1.399c-.269 0-.527-.012-.785-.045A9.234 9.234 0 005.032 13c6.036 0 9.336-5 9.336-9.334 0-.145-.005-.285-.012-.424A6.544 6.544 0 0016 1.539z"/></symbol><symbol viewBox="0 0 11 11" id="star" xmlns="http://www.w3.org/2000/svg"><path d="M5.5 8.355l3.348 2.02-.889-3.808 2.958-2.562-3.895-.33L5.5.083 3.978 3.675l-3.895.33 2.958 2.562-.889 3.808L5.5 8.355z"/></symbol><symbol viewBox="0 0 20 20" id="tab-arrow-right" xmlns="http://www.w3.org/2000/svg"><path d="M11 16.5V13H3V7h8V3.5l6.5 6.5-6.5 6.5z"/></symbol><symbol viewBox="0 0 15 15" id="toggler-closed" xmlns="http://www.w3.org/2000/svg"><path fill-rule="evenodd" clip-rule="evenodd" d="M14.716 1.654a.969.969 0 10-1.37-1.37L7.5 6.13 1.654.284a.97.97 0 00-1.37 1.37L6.129 7.5.284 13.346a.97.97 0 001.37 1.37L7.5 8.871l5.846 5.845a.97.97 0 001.37-1.37L8.871 7.5z"/></symbol><symbol viewBox="0 0 32 16" id="toggler-open" xmlns="http://www.w3.org/2000/svg"><defs><path id="ta" d="M-1.263 30.9h49.591v19.028H-1.263z"/></defs><g transform="matrix(.99952 0 0 1.04746 .011 -.032)"><rect width="31.396" height="1.937" x=".299" y=".34" ry="0"/><rect width="31.396" height="1.937" x=".299" y="6.699" ry="0"/><rect width="31.396" height="1.937" x=".299" y="13.058" ry="0"/></g><text style="-inkscape-font-specification:'Calibri Bold'" x="-.863" y="47.771" transform="scale(1.05872 .94454)" font-weight="700" font-size="16" font-family="Calibri"/></symbol><symbol viewBox="0 0 18 16" id="wishlist" xmlns="http://www.w3.org/2000/svg"><path d="M12.75.5A4.99 4.99 0 009 2.242 4.99 4.99 0 005.25.5C2.683.5.667 2.517.667 5.083c0 3.15 2.833 5.717 7.125 9.617L9 15.792l1.208-1.1c4.292-3.892 7.125-6.459 7.125-9.609C17.333 2.517 15.317.5 12.75.5zM9.083 13.458L9 13.542l-.083-.084C4.95 9.867 2.333 7.492 2.333 5.083c0-1.666 1.25-2.916 2.917-2.916 1.283 0 2.533.825 2.975 1.966h1.558c.434-1.141 1.684-1.966 2.967-1.966 1.667 0 2.917 1.25 2.917 2.916 0 2.409-2.617 4.784-6.584 8.375z"/></symbol></svg>