<?xml version="1.0" encoding="utf-8"?><svg xmlns="http://www.w3.org/2000/svg" xmlns:xlink="http://www.w3.org/1999/xlink"><symbol fill="none" viewBox="0 0 80 80" id="logo-footer" xmlns="http://www.w3.org/2000/svg"><path d="M40 80c22.091 0 40-17.909 40-40S62.091 0 40 0 0 17.909 0 40s17.909 40 40 40z" fill="#fff"/><path d="M56.932 22.665c0-.179-.045-.268-.045-.358.94-2.419.627-2.464-1.837-2.33-2.329.135-4.658.672-6.898 1.39-4.927 1.567-9.54 3.851-13.93 6.629-2.016 1.299-3.942 2.687-5.375 4.703-.807 1.164-.717 2.463.537 3.315 2.105 1.433 4.345 2.687 6.405 4.21 1.882 1.389 3.718 2.867 5.376 4.524 2.194 2.195 2.642 5.062 2.329 8.063-.045.448-.269.85-.493 1.254-1.344 2.464-3.18 4.48-5.689 5.823-1.254.672-2.463 1.568-3.807 2.105-1.12.448-2.374.672-3.539.762-1.075.09-1.836-.627-2.195-1.658-.627-1.836-.403-3.628.896-5.061 2.106-2.374 4.748-3.897 7.84-4.703.178-.045.402-.045.581-.045.045.09.09.224.18.313-.852.538-1.658 1.03-2.195 1.389-.18.493-.224.896-.403 1.03-1.12.896-2.374 1.747-3.45 2.688a15.173 15.173 0 00-2.194 2.284c-.672.896-.403 1.389.716 1.523 2.15.224 4.077-.493 5.958-1.478a17.023 17.023 0 006.316-5.778c1.12-1.658 1.21-3.897.09-5.644-1.793-2.688-4.435-4.39-7.078-6.047-2.24-1.434-4.703-2.553-6.45-4.748-1.3-1.613-1.3-3.27-.627-5.017.806-2.016 2.374-3.404 4.076-4.569 4.748-3.315 9.854-6.002 15.364-7.794 2.15-.716 4.345-1.388 6.54-1.881 1.567-.358 3.18-.314 4.21 1.388 1.12 1.971 1.254 2.688-1.21 3.718z" fill="#211E1E"/></symbol><symbol fill="none" viewBox="0 0 80 80" id="logo-header" xmlns="http://www.w3.org/2000/svg"><path d="M40 80c22.091 0 40-17.909 40-40S62.091 0 40 0 0 17.909 0 40s17.909 40 40 40z" fill="#211E1E"/><path d="M56.932 22.665c0-.179-.045-.268-.045-.358.94-2.419.627-2.464-1.837-2.33-2.329.135-4.658.672-6.898 1.39-4.927 1.567-9.54 3.851-13.93 6.629-2.016 1.299-3.942 2.687-5.375 4.703-.807 1.164-.717 2.463.537 3.315 2.105 1.433 4.345 2.687 6.405 4.21 1.882 1.389 3.718 2.867 5.376 4.524 2.194 2.195 2.642 5.062 2.329 8.063-.045.448-.269.85-.493 1.254-1.344 2.464-3.18 4.48-5.689 5.823-1.254.672-2.463 1.568-3.807 2.105-1.12.448-2.374.672-3.539.762-1.075.09-1.836-.627-2.195-1.658-.627-1.836-.403-3.628.896-5.061 2.106-2.374 4.748-3.897 7.84-4.703.178-.045.402-.045.581-.045.045.09.09.224.18.313-.852.538-1.658 1.03-2.195 1.389-.18.493-.224.896-.403 1.03-1.12.896-2.374 1.747-3.45 2.688a15.173 15.173 0 00-2.194 2.284c-.672.896-.403 1.389.716 1.523 2.15.224 4.077-.493 5.958-1.478a17.023 17.023 0 006.316-5.778c1.12-1.658 1.21-3.897.09-5.644-1.793-2.688-4.435-4.39-7.078-6.047-2.24-1.434-4.703-2.553-6.45-4.748-1.3-1.613-1.3-3.27-.627-5.017.806-2.016 2.374-3.404 4.076-4.569 4.748-3.315 9.854-6.002 15.364-7.794 2.15-.716 4.345-1.388 6.54-1.881 1.567-.358 3.18-.314 4.21 1.388 1.12 1.971 1.254 2.688-1.21 3.718z" fill="#FDB1D0"/></symbol></svg>