<svg width="18" height="18" viewBox="0 0 18 18" fill="none" xmlns="http://www.w3.org/2000/svg">
<path d="M9.00002 0.666687C4.40002 0.666687 0.666687 4.40002 0.666687 9.00002C0.666687 13.6 4.40002 17.3334 9.00002 17.3334C13.6 17.3334 17.3334 13.6 17.3334 9.00002C17.3334 4.40002 13.6 0.666687 9.00002 0.666687ZM9.00002 3.16669C10.3834 3.16669 11.5 4.28335 11.5 5.66669C11.5 7.05002 10.3834 8.16669 9.00002 8.16669C7.61669 8.16669 6.50002 7.05002 6.50002 5.66669C6.50002 4.28335 7.61669 3.16669 9.00002 3.16669ZM9.00002 15C6.91669 15 5.07502 13.9334 4.00002 12.3167C4.02502 10.6584 7.33335 9.75002 9.00002 9.75002C10.6584 9.75002 13.975 10.6584 14 12.3167C12.925 13.9334 11.0834 15 9.00002 15Z" fill="#FDB1D0"/>
</svg>
