<svg width="18" height="18" viewBox="0 0 18 18" fill="none" xmlns="http://www.w3.org/2000/svg">
<path d="M5.83337 14C4.91671 14 4.17504 14.75 4.17504 15.6667C4.17504 16.5834 4.91671 17.3334 5.83337 17.3334C6.75004 17.3334 7.50004 16.5834 7.50004 15.6667C7.50004 14.75 6.75004 14 5.83337 14ZM0.833374 0.666687V2.33335H2.50004L5.50004 8.65835L4.37504 10.7C4.24171 10.9334 4.16671 11.2084 4.16671 11.5C4.16671 12.4167 4.91671 13.1667 5.83337 13.1667H15.8334V11.5H6.18337C6.06671 11.5 5.97504 11.4084 5.97504 11.2917L6.00004 11.1917L6.75004 9.83335H12.9584C13.5834 9.83335 14.1334 9.49169 14.4167 8.97502L17.4 3.56669C17.4667 3.45002 17.5 3.30835 17.5 3.16669C17.5 2.70835 17.125 2.33335 16.6667 2.33335H4.34171L3.55837 0.666687H0.833374ZM14.1667 14C13.25 14 12.5084 14.75 12.5084 15.6667C12.5084 16.5834 13.25 17.3334 14.1667 17.3334C15.0834 17.3334 15.8334 16.5834 15.8334 15.6667C15.8334 14.75 15.0834 14 14.1667 14Z" fill="#FDB1D0"/>
</svg>
