<svg width="80" height="80" viewBox="0 0 80 80" fill="none" xmlns="http://www.w3.org/2000/svg">
<path fill-rule="evenodd" clip-rule="evenodd" d="M39.5 78C61.0391 78 78 61.5391 78 40C78 18.4609 61.0391 2 39.5 2C17.9609 2 2 18.4609 2 40C2 61.5391 17.9609 78 39.5 78ZM80 40C80 62.0914 62.0914 80 40 80C17.9086 80 0 62.0914 0 40C0 17.9086 17.9086 0 40 0C62.0914 0 80 17.9086 80 40Z" fill="#FDB1D0"/>
<path fill-rule="evenodd" clip-rule="evenodd" d="M55.9317 24.1673V22.6652C55.9317 22.6652 55.9306 22.6581 55.9287 22.6485L55.9215 22.6136C55.9185 22.5988 55.9137 22.5754 55.9091 22.5492C55.9 22.4973 55.8869 22.4112 55.8869 22.3069V22.1192L55.9549 21.9444C56.1296 21.4953 56.2428 21.1719 56.3083 20.9368C56.0278 20.9297 55.6454 20.9467 55.1065 20.9761C52.8888 21.1042 50.6469 21.6179 48.4571 22.3186L48.4555 22.3191C43.6257 23.8559 39.0906 26.0989 34.7599 28.8384C32.7644 30.1246 30.9803 31.4261 29.6654 33.2729C29.3702 33.7012 29.2968 34.0685 29.3336 34.339C29.3679 34.5915 29.5152 34.8939 29.9456 35.186L29.9469 35.1869C30.7912 35.7617 31.6556 36.306 32.5388 36.8621C32.7375 36.9873 32.9373 37.113 33.1379 37.2398C34.2211 37.9246 35.3221 38.635 36.3833 39.4194C38.2851 40.8231 40.1652 42.3345 41.8717 44.041C44.3658 46.5351 44.8177 49.7602 44.4886 52.9129C44.4223 53.5695 44.1091 54.1311 43.9041 54.499C43.8948 54.5155 43.8859 54.5316 43.8771 54.5473C42.4571 57.1495 40.4918 59.3193 37.7847 60.7695C37.3548 60.9998 36.94 61.2522 36.4965 61.5221C36.3216 61.6285 36.1422 61.7376 35.9557 61.8492C35.3182 62.2306 34.6246 62.6225 33.8764 62.9218C32.6339 63.4188 31.2735 63.657 30.0463 63.7516C28.361 63.8905 27.2761 62.7169 26.8271 61.426L26.8252 61.4206C26.1027 59.3047 26.3411 57.1168 27.9226 55.3686C30.1716 52.834 32.9926 51.2157 36.2537 50.365L36.2636 50.3624C36.5667 50.2867 36.9001 50.2874 37.0605 50.2878C37.0705 50.2878 37.0798 50.2878 37.0885 50.2878H37.7065L37.9829 50.8406C37.9956 50.866 38.0064 50.8892 38.0146 50.9071C38.0226 50.9245 38.0305 50.9423 38.0356 50.9536L38.0368 50.9563L38.8593 51.7788L37.8016 52.4469C37.5051 52.6341 37.2197 52.8125 36.9516 52.9801C36.5641 53.2222 36.2126 53.4419 35.9155 53.6335C35.9103 53.6514 35.9051 53.6695 35.8998 53.6879C35.879 53.7605 35.8564 53.8394 35.8257 53.9377C35.7935 54.0408 35.7465 54.181 35.6775 54.319C35.6113 54.4514 35.4938 54.6463 35.2867 54.8072C34.8341 55.169 34.358 55.5255 33.8954 55.8719C33.7723 55.9641 33.6501 56.0556 33.5295 56.1463C32.9443 56.5866 32.387 57.0159 31.8791 57.4603L31.87 57.4683L31.8608 57.476C31.1441 58.0733 30.4965 58.7534 29.8804 59.524C31.7219 59.7062 33.4227 59.1005 35.2321 58.1532C37.6806 56.8437 39.659 55.0332 41.179 52.711L41.183 52.7049L41.1871 52.6988C42.0913 51.3606 42.1583 49.5572 41.268 48.1617C39.6121 45.6822 37.1565 44.0829 34.4967 42.415L34.4889 42.4101C33.99 42.0908 33.4786 41.7868 32.9501 41.4727C32.9035 41.445 32.9969 41.5006 32.9501 41.4727C32.3774 41.1322 31.6467 40.6953 31.0683 40.3146C29.9097 39.5519 28.762 38.6562 27.7972 37.4447C27.0366 36.4998 26.6278 35.5005 26.5296 34.4553C26.4325 33.4225 26.6449 32.4125 27.0174 31.444L27.0222 31.4315C27.9383 29.1411 29.7019 27.6137 31.4583 26.4114C36.2721 23.0513 41.4637 20.3165 47.078 18.4903C49.2396 17.7698 51.469 17.0866 53.7097 16.5835C54.557 16.39 55.5292 16.2762 56.4764 16.5094C57.4682 16.7535 58.3477 17.3575 58.9966 18.4296L59.0037 18.4414L59.0106 18.4534C59.2911 18.9472 59.5474 19.4254 59.7104 19.872C59.8745 20.3215 59.9851 20.8457 59.852 21.3946C59.7145 21.9621 59.3587 22.3882 58.9264 22.72C58.5074 23.0417 57.96 23.3191 57.3175 23.5878L55.9317 24.1673ZM56.3765 20.5843C56.3765 20.5843 56.377 20.5878 56.3768 20.5959C56.3762 20.5886 56.3765 20.5843 56.3765 20.5843Z" fill="#FDB1D0"/>
</svg>
