<svg width="80" height="80" viewBox="0 0 80 80" fill="none" xmlns="http://www.w3.org/2000/svg">
<path fill-rule="evenodd" clip-rule="evenodd" d="M40 79C61.5391 79 79 61.5391 79 40C79 18.4609 61.5391 1 40 1C18.4609 1 1 18.4609 1 40C1 61.5391 18.4609 79 40 79ZM80 40C80 62.0914 62.0914 80 40 80C17.9086 80 0 62.0914 0 40C0 17.9086 17.9086 0 40 0C62.0914 0 80 17.9086 80 40Z" fill="#FDB1D0"/>
<path fill-rule="evenodd" clip-rule="evenodd" d="M55.9317 24.1673V22.6652C55.9317 22.6649 55.9317 22.6647 55.9317 22.6645C55.9314 22.6627 55.9306 22.6581 55.9287 22.6485L55.9215 22.6136C55.9185 22.5988 55.9137 22.5754 55.9091 22.5492C55.9 22.4973 55.8869 22.4112 55.8869 22.3069V22.1192L55.9549 21.9444C56.1296 21.4953 56.2428 21.1719 56.3083 20.9368C56.0278 20.9297 55.6454 20.9467 55.1065 20.9761C52.8888 21.1042 50.6469 21.6179 48.4571 22.3186L48.4555 22.3191C43.6257 23.8559 39.0906 26.0989 34.7599 28.8384C32.7644 30.1246 30.9803 31.4261 29.6654 33.2729C29.3702 33.7012 29.2968 34.0685 29.3336 34.339C29.3679 34.5915 29.5152 34.8939 29.9456 35.186L29.9469 35.1869C30.7912 35.7617 31.6556 36.306 32.5388 36.8621C32.7375 36.9873 32.9373 37.113 33.1379 37.2398C34.2211 37.9246 35.3221 38.635 36.3833 39.4194C38.2851 40.8231 40.1652 42.3345 41.8717 44.041C44.3658 46.5351 44.8177 49.7602 44.4886 52.9129C44.4223 53.5695 44.1091 54.1311 43.9041 54.499C43.8948 54.5155 43.8859 54.5316 43.8771 54.5473C42.4571 57.1495 40.4918 59.3193 37.7847 60.7695C37.3548 60.9998 36.94 61.2522 36.4965 61.5221C36.3216 61.6285 36.1422 61.7376 35.9557 61.8492C35.3182 62.2306 34.6246 62.6225 33.8764 62.9218C32.6339 63.4188 31.2735 63.657 30.0463 63.7516C28.361 63.8905 27.2761 62.7169 26.8271 61.426L26.8252 61.4206C26.1027 59.3047 26.3411 57.1168 27.9226 55.3686C30.1716 52.834 32.9926 51.2157 36.2537 50.365L36.2636 50.3624L36.2636 50.3625C36.5667 50.2867 36.9001 50.2874 37.0605 50.2878C37.0705 50.2878 37.0798 50.2878 37.0885 50.2878H37.7065L37.9829 50.8406C37.9956 50.866 38.0064 50.8892 38.0146 50.9071C38.0226 50.9245 38.0305 50.9423 38.0356 50.9536L38.0368 50.9563L38.8593 51.7788L37.8016 52.4469C37.5051 52.6341 37.2197 52.8125 36.9516 52.9801C36.5641 53.2222 36.2126 53.4419 35.9155 53.6335C35.9103 53.6514 35.9051 53.6695 35.8998 53.6879C35.879 53.7605 35.8564 53.8394 35.8257 53.9377C35.7935 54.0408 35.7465 54.181 35.6775 54.319C35.6113 54.4514 35.4938 54.6463 35.2867 54.8072C34.8341 55.169 34.358 55.5255 33.8954 55.8719C33.7723 55.9641 33.6501 56.0556 33.5296 56.1463C32.9443 56.5866 32.387 57.0159 31.8791 57.4603L31.87 57.4683L31.8608 57.476C31.1441 58.0733 30.4965 58.7534 29.8804 59.524C31.7219 59.7062 33.4227 59.1005 35.2321 58.1532C37.6806 56.8437 39.659 55.0332 41.179 52.711L41.183 52.7049L41.1871 52.6988C42.0913 51.3606 42.1583 49.5572 41.268 48.1617C39.6121 45.6822 37.1565 44.0829 34.4967 42.415L34.4889 42.4101L34.4889 42.41C33.99 42.0907 33.4786 41.7868 32.9501 41.4727C32.9035 41.445 32.8567 41.4172 32.8099 41.3894C32.2372 41.0489 31.6467 40.6953 31.0683 40.3146C29.9097 39.5519 28.762 38.6562 27.7972 37.4447C27.0367 36.4998 26.6278 35.5005 26.5296 34.4553C26.4325 33.4225 26.6449 32.4125 27.0174 31.444L27.0222 31.4315L27.0223 31.4315C27.9384 29.1412 29.7019 27.6137 31.4583 26.4114C36.2721 23.0513 41.4637 20.3165 47.078 18.4903C49.2396 17.7698 51.469 17.0866 53.7097 16.5835C54.557 16.39 55.5292 16.2762 56.4764 16.5094C57.4683 16.7535 58.3477 17.3575 58.9966 18.4296L59.0037 18.4414L59.0106 18.4534C59.2911 18.9472 59.5474 19.4254 59.7104 19.872C59.8745 20.3215 59.9851 20.8457 59.852 21.3946C59.7145 21.9621 59.3587 22.3882 58.9264 22.72C58.5074 23.0417 57.96 23.3191 57.3175 23.5878L55.9317 24.1673ZM47.3908 19.4401C41.8813 21.2318 36.7749 23.9194 32.0269 27.2341C30.3248 28.3987 28.757 29.7873 27.9507 31.8029C27.8217 32.1383 27.7175 32.4704 27.6425 32.7995C27.3629 34.0257 27.4888 35.2105 28.2497 36.3703C28.3482 36.5205 28.4575 36.6703 28.5778 36.8197C29.9241 38.5112 31.6961 39.5642 33.4631 40.6143C33.989 40.9268 34.5144 41.2391 35.028 41.5678C37.3859 43.0465 39.7439 44.5608 41.4973 46.779C41.7092 47.0469 41.9122 47.3251 42.1053 47.6148C43.013 49.0309 43.1261 50.7707 42.5398 52.2617C42.4029 52.6101 42.2278 52.9448 42.0157 53.2587C40.4031 55.7223 38.2979 57.6484 35.6999 59.037C33.8186 60.0224 31.8925 60.7391 29.7424 60.5151C28.6226 60.3808 28.3539 59.888 29.0258 58.9922C29.6977 58.1411 30.4143 57.3796 31.2206 56.7078C31.8722 56.1376 32.5896 55.6004 33.3029 55.0662C33.7666 54.719 34.2285 54.3731 34.6697 54.0202C34.7882 53.9313 34.8479 53.7247 34.9267 53.4524C34.9669 53.3132 35.0122 53.1567 35.0728 52.9899C35.2301 52.8851 35.4105 52.7687 35.6083 52.643C35.8537 52.487 36.1259 52.3168 36.4142 52.1367C36.4227 52.1313 36.4313 52.1259 36.4399 52.1206C36.5148 52.0738 36.5907 52.0263 36.6676 51.9782C36.6696 51.977 36.6716 51.9757 36.6736 51.9745C36.8095 51.8894 36.9482 51.8026 37.0885 51.7143C37.1479 51.6769 37.2077 51.6392 37.2676 51.6014C37.2101 51.5438 37.171 51.4678 37.1386 51.397C37.1324 51.3836 37.1265 51.3704 37.1208 51.3576C37.1096 51.3326 37.099 51.309 37.0885 51.2878C37.0822 51.2878 37.0759 51.2878 37.0696 51.2878C36.8938 51.2879 36.6791 51.2894 36.5062 51.3326C36.0521 51.4511 35.6077 51.585 35.1732 51.7348C32.6505 52.6047 30.4634 54.0106 28.6674 56.0359C27.3684 57.4692 27.1445 59.2609 27.7716 61.0974C28.1299 62.1277 28.8914 62.8444 29.9664 62.7548C31.131 62.6652 32.3852 62.4412 33.505 61.9933C34.3605 61.6511 35.1615 61.1637 35.9543 60.6813C36.4068 60.4059 36.8567 60.1322 37.3124 59.888C39.8208 58.5443 41.6573 56.5286 43.0011 54.065C43.2251 53.6618 43.4491 53.2587 43.4938 52.8108C43.5053 52.7014 43.5157 52.5921 43.525 52.4831C43.6865 50.6025 43.5326 48.7828 42.8184 47.1577C42.8163 47.153 42.8142 47.1483 42.8121 47.1436C42.6718 46.8258 42.5099 46.5154 42.3247 46.2136C42.0088 45.6988 41.6252 45.2086 41.1646 44.7481C39.5073 43.0907 37.6708 41.6126 35.7895 40.224C34.5712 39.3235 33.2903 38.517 32.0116 37.7119C31.1276 37.1553 30.2446 36.5993 29.3841 36.0135C29.2532 35.9246 29.1349 35.8309 29.0291 35.7329C28.2426 35.0052 28.1399 34.0446 28.5955 33.1228C28.666 32.9802 28.7498 32.8385 28.8466 32.6988C30.28 30.6831 32.2061 29.2945 34.2217 27.9955C38.6114 25.2184 43.2251 22.934 48.1523 21.3662C50.3919 20.6495 52.7212 20.112 55.0504 19.9776C57.1774 19.8616 57.7017 19.8791 57.1999 21.4428C57.1205 21.6902 57.0154 21.9764 56.8869 22.3069C56.8869 22.344 56.8946 22.3811 56.9036 22.4245C56.9163 22.486 56.9317 22.5602 56.9317 22.6652C57.0781 22.604 57.2153 22.5438 57.3437 22.4845C57.4733 22.4246 57.5939 22.3655 57.7059 22.3069C57.7666 22.2751 57.8247 22.2434 57.8803 22.2118C57.8805 22.2118 57.8806 22.2117 57.8807 22.2116C57.9299 22.1837 57.9771 22.1559 58.0225 22.128C59.3145 21.3349 59.0585 20.562 58.1411 18.9474C57.1109 17.2453 55.4983 17.2005 53.9306 17.5588C51.7357 18.0515 49.5409 18.7234 47.3908 19.4401ZM56.3765 20.5843C56.3767 20.5841 56.377 20.5878 56.3768 20.5959C56.3762 20.5886 56.3763 20.5845 56.3765 20.5843ZM55.9318 22.6654C55.9318 22.6653 55.9318 22.6652 55.9318 22.6652Z" fill="#FDB1D0"/>
</svg>
